<svg width="375" height="254" viewBox="0 0 375 254" fill="none" xmlns="http://www.w3.org/2000/svg">
<path d="M-12 222.843C-6.89016 211.274 2.15808 201.362 16.1298 193.83C56.3123 172.168 88.8832 169.097 121.122 166.057C173.325 161.135 224.657 156.295 306.026 72.7414C342.588 35.1984 373.397 13.0478 399 0.980713V268H-12L-12 222.843Z" fill="#0EA5E9" fill-opacity="0.44"/>
<path d="M391 62.7049V267H-10.4609C-6.6602 263.704 -2.26693 260.683 2.76494 257.97C42.9475 236.308 75.5183 233.237 107.757 230.197C159.96 225.274 211.293 220.434 292.661 136.881C331.814 96.6775 364.37 74.1253 391 62.7049Z" fill="#0EA5E9" fill-opacity="0.44"/>
</svg>
