<svg width="375" height="136" viewBox="0 0 375 136" fill="none" xmlns="http://www.w3.org/2000/svg">
<path d="M386 116.905C375.654 128.048 361.474 134.865 342.5 135.5C296.876 137.027 266.339 125.29 236.113 113.672C187.169 94.8602 139.041 76.3619 29 115C14.2974 120.162 0.655725 124.332 -12 127.628V0H386V116.905Z" fill="#0EA5E9" fill-opacity="0.44"/>
<path d="M399 81.7596C394.092 83.0428 388.767 83.807 383 84C337.376 85.5272 306.839 73.7898 276.613 62.1721C227.669 43.3602 179.541 24.8619 69.5 63.5C33.7549 76.051 4.28056 82.7344 -20 85.2549L-20 1H399V81.7596Z" fill="#0EA5E9" fill-opacity="0.44"/>
</svg>
